<svg t="1702190806170" class="icon" viewBox="0 0 1024 1024" version="1.1"
  xmlns="http://www.w3.org/2000/svg" p-id="783" width="200" height="200">
  <path d="M448.17 751.18c0 73.88-60.45 133.96-133.96 133.96-73.88 0-133.96-60.08-133.96-133.96 0-73.51 60.08-133.59 133.96-133.59 30.97 0 58.96 10.82 81.72 28.36V464.98l52.24-14.93v301.13zM843.76 679.16c0 73.88-60.08 133.96-133.96 133.96-73.51 0-133.96-60.08-133.96-133.96 0-73.51 60.45-133.59 133.96-133.59 31.34 0 59.33 10.82 82.09 28.73V352.29l51.87-14.93v341.8z" fill="#e8989a" p-id="784"></path>
  <path d="M843.75 337.37L395.97 464.99V316.1c0-54.85 33.21-97.39 85.82-111.57l215.68-58.96c43.66-11.94 80.6-7.84 106.72 12.31 26.49 19.78 39.55 53.36 39.55 99.63v79.86z" fill="#e8989a" p-id="785"></path>
</svg>
